<?xml version="1.0" encoding="utf-8"?>
<!-- Generator: Adobe Illustrator 16.0.0, SVG Export Plug-In . SVG Version: 6.00 Build 0)  -->
<!DOCTYPE svg PUBLIC "-//W3C//DTD SVG 1.1//EN" "http://www.w3.org/Graphics/SVG/1.1/DTD/svg11.dtd">
<svg version="1.1" id="Layer_1" xmlns="http://www.w3.org/2000/svg" xmlns:xlink="http://www.w3.org/1999/xlink" x="0px" y="0px"
	 width="219px" height="33px" viewBox="0 0 219 33" enable-background="new 0 0 219 33" xml:space="preserve">
<g>
	<circle fill="#F1BA36" cx="16.385" cy="16.273" r="15.385"/>
	<g>
		<path fill="#221E20" d="M9.292,23.577V20.95c0-0.379,0.386-0.635,0.733-0.484c1.617,0.703,3.39,1.043,5.32,1.043
			c2.644,0,4.175-0.73,4.175-2.018c0-1.148-1.009-1.704-3.062-1.704h-2.877c-0.294,0-0.532-0.238-0.532-0.531V14.77
			c0-0.293,0.238-0.532,0.532-0.532h2.877c1.67,0,2.505-0.521,2.505-1.53c0-1.113-1.183-1.67-3.548-1.67
			c-1.82,0-3.461,0.282-4.923,0.867c-0.342,0.137-0.712-0.118-0.712-0.487V8.91c0-0.326,0.202-0.614,0.504-0.736
			c1.691-0.688,3.779-1.032,6.21-1.032c2.122,0,3.896,0.452,5.323,1.357c1.426,0.904,2.157,2.052,2.157,3.41
			c0,1.776-0.719,2.982-2.158,3.592c-0.11,0.046-0.105,0.209,0.006,0.251c1.634,0.623,2.848,1.972,2.848,4.018
			c0,1.637-0.8,2.992-2.4,4.07c-1.566,1.045-3.653,1.566-6.228,1.566c-2.5,0-4.568-0.375-6.257-1.098
			C9.488,24.183,9.292,23.897,9.292,23.577z"/>
		<path fill="#221E20" d="M131.162,21.333v2.602c0,0.424-0.252,0.809-0.641,0.979c-0.541,0.234-1.205,0.354-2.004,0.354
			c-1.908,0-3.174-0.678-3.855-2.062c-0.039-0.08-0.141-0.1-0.203-0.037c-1.514,1.48-3.455,2.238-5.855,2.238
			c-3.758,0-6.402-2.297-6.402-5.811c0-1.843,0.662-3.269,2.018-4.243c1.357-0.974,2.957-1.461,4.836-1.461
			c1.949,0,3.619,0.348,5.01,1.079v-0.522c0-2.191-1.531-3.27-4.592-3.27c-1.436,0-2.83,0.295-4.148,0.886
			c-0.52,0.233-1.105-0.157-1.105-0.726V9.196c0-0.425,0.256-0.804,0.645-0.976c1.639-0.728,3.553-1.079,5.793-1.079
			c2.469,0,4.486,0.592,5.982,1.81c1.531,1.217,2.297,2.887,2.297,5.009v5.879c0,0.869,0.416,1.322,1.217,1.322
			c0.25,0,0.477-0.025,0.67-0.076C130.992,21.042,131.162,21.157,131.162,21.333z M124.064,18.685c0-0.379-0.207-0.729-0.545-0.901
			c-0.885-0.455-1.895-0.691-3.072-0.691c-2.088,0-3.41,0.833-3.41,2.261c0,1.529,1.287,2.26,3.096,2.26
			c1.564,0,2.807-0.496,3.699-1.492c0.158-0.176,0.232-0.41,0.232-0.646V18.685z"/>
		<path fill="#221E20" d="M167.518,21.333v2.602c0,0.424-0.252,0.809-0.641,0.979c-0.541,0.234-1.205,0.354-2.004,0.354
			c-1.908,0-3.172-0.678-3.854-2.062c-0.039-0.08-0.141-0.1-0.205-0.037c-1.512,1.48-3.453,2.238-5.855,2.238
			c-3.758,0-6.402-2.297-6.402-5.811c0-1.843,0.662-3.269,2.018-4.243c1.357-0.974,2.959-1.461,4.836-1.461
			c1.949,0,3.619,0.348,5.01,1.079v-0.522c0-2.191-1.529-3.27-4.592-3.27c-1.436,0-2.83,0.295-4.148,0.886
			c-0.52,0.233-1.105-0.157-1.105-0.726V9.196c0-0.425,0.258-0.804,0.645-0.976c1.639-0.728,3.553-1.079,5.793-1.079
			c2.469,0,4.486,0.592,5.982,1.81c1.531,1.217,2.297,2.887,2.297,5.009v5.879c0,0.869,0.418,1.322,1.217,1.322
			c0.252,0,0.477-0.025,0.67-0.076C167.348,21.042,167.518,21.157,167.518,21.333z M160.42,18.685c0-0.379-0.207-0.729-0.543-0.901
			c-0.885-0.455-1.896-0.691-3.074-0.691c-2.088,0-3.41,0.833-3.41,2.261c0,1.529,1.287,2.26,3.098,2.26
			c1.562,0,2.805-0.496,3.697-1.492c0.158-0.176,0.232-0.41,0.232-0.646V18.685z"/>
		<path fill="#221E20" d="M65.164,9.785c1.565,1.74,2.331,3.896,2.331,6.505c0,2.574-0.765,4.732-2.331,6.505
			c-1.531,1.74-3.479,2.609-5.845,2.609c-2.333,0-4.139-0.777-5.476-2.301c-0.081-0.09-0.229-0.039-0.229,0.084v7.916
			c0,0.445-0.361,0.807-0.807,0.807h-3.291c-0.446,0-0.807-0.361-0.807-0.807V8.401c0-0.446,0.361-0.808,0.807-0.808h3.291
			c0.446,0,0.807,0.361,0.807,0.808v0.95c0,0.122,0.149,0.172,0.228,0.079c1.281-1.516,3.116-2.289,5.477-2.289
			C61.686,7.141,63.633,8.011,65.164,9.785z M53.614,14.151v4.279c0,0.08,0.02,0.158,0.059,0.229
			c0.818,1.439,2.387,2.467,4.255,2.467c1.356,0,2.504-0.451,3.375-1.391c0.87-0.939,1.322-2.087,1.322-3.445
			c0-1.391-0.452-2.539-1.322-3.479c-0.87-0.939-2.018-1.392-3.375-1.392c-1.868,0-3.437,1.061-4.255,2.502
			C53.634,13.992,53.614,14.072,53.614,14.151z"/>
		<path fill="#221E20" d="M195.836,9.785c1.566,1.74,2.332,3.896,2.332,6.505c0,2.574-0.766,4.732-2.332,6.505
			c-1.529,1.74-3.479,2.609-5.844,2.609c-2.334,0-4.141-0.777-5.477-2.301c-0.08-0.09-0.229-0.039-0.229,0.084v7.916
			c0,0.445-0.361,0.807-0.809,0.807h-3.289c-0.447,0-0.809-0.361-0.809-0.807V8.401c0-0.446,0.361-0.808,0.809-0.808h3.289
			c0.447,0,0.809,0.361,0.809,0.808v0.95c0,0.122,0.148,0.172,0.229,0.079c1.279-1.516,3.115-2.289,5.477-2.289
			C192.357,7.141,194.307,8.011,195.836,9.785z M184.287,14.151v4.279c0,0.08,0.02,0.158,0.059,0.229
			c0.818,1.439,2.387,2.467,4.254,2.467c1.357,0,2.506-0.451,3.375-1.391s1.322-2.087,1.322-3.445c0-1.391-0.453-2.539-1.322-3.479
			c-0.869-0.939-2.018-1.392-3.375-1.392c-1.867,0-3.436,1.061-4.254,2.502C184.307,13.992,184.287,14.072,184.287,14.151z"/>
		<path fill="#221E20" d="M70.767,24.417V8.129c0-0.296,0.24-0.536,0.536-0.536h15.662c0.296,0,0.536,0.24,0.536,0.536v16.288
			c0,0.297-0.24,0.535-0.536,0.535H83.13c-0.296,0-0.536-0.238-0.536-0.535V12.235c0-0.296-0.24-0.536-0.536-0.536h-5.851
			c-0.296,0-0.536,0.24-0.536,0.536v12.182c0,0.297-0.24,0.535-0.536,0.535h-3.834C71.006,24.952,70.767,24.714,70.767,24.417z"/>
		<path fill="#221E20" d="M99.438,11.699c-0.293,0-0.534,0.233-0.542,0.526l-0.054,1.909c-0.104,2.401-0.209,4-0.8,6.088
			c-0.834,2.922-2.505,4.766-5.949,4.871c-0.607,0-1.104-0.057-1.477-0.166c-0.223-0.066-0.367-0.281-0.367-0.514v-2.975
			c0-0.318,0.271-0.566,0.587-0.539c0.134,0.014,0.275,0.018,0.421,0.018c1.148,0,1.879-0.66,2.261-2.227
			c0.417-1.634,0.521-3.095,0.557-5.983l0.094-4.583c0.006-0.294,0.247-0.531,0.542-0.531h13.921c0.299,0,0.542,0.243,0.542,0.542
			v16.276c0,0.299-0.243,0.541-0.542,0.541h-3.821c-0.299,0-0.542-0.242-0.542-0.541v-12.17c0-0.299-0.243-0.542-0.542-0.542H99.438
			z"/>
		<path fill="#221E20" d="M137.041,24.405V12.248c0-0.303-0.244-0.549-0.549-0.549h-4.328c-0.303,0-0.549-0.246-0.549-0.548V8.142
			c0-0.303,0.246-0.549,0.549-0.549h14.73c0.303,0,0.549,0.246,0.549,0.549v3.008c0,0.303-0.246,0.548-0.549,0.548h-4.398
			c-0.303,0-0.549,0.246-0.549,0.549v12.158c0,0.303-0.246,0.547-0.549,0.547h-3.809C137.287,24.952,137.041,24.708,137.041,24.405z
			"/>
		<path fill="#221E20" d="M170.275,22.274c0-1.67,1.322-2.992,3.025-2.992c1.67,0,3.027,1.322,3.027,2.992
			c0,1.705-1.357,3.061-3.027,3.061C171.598,25.335,170.275,23.979,170.275,22.274z"/>
		<path fill="#221E20" d="M199.596,30.983v-2.998c0-0.367,0.365-0.637,0.709-0.506c0.609,0.236,1.264,0.361,1.934,0.361
			c1.721,0,2.785-1.014,3.77-3.26c0.059-0.137,0.059-0.297-0.002-0.434l-7.051-15.806c-0.156-0.352,0.1-0.749,0.486-0.749h3.922
			c0.33,0,0.627,0.201,0.75,0.507l4.133,10.27c0.09,0.227,0.412,0.223,0.498-0.006l3.908-10.252
			c0.119-0.312,0.418-0.519,0.752-0.519h3.83c0.379,0,0.637,0.387,0.49,0.738l-7.729,18.432c-1.529,3.582-3.826,5.357-6.922,5.357
			c-1.199,0-2.229-0.174-3.041-0.498C199.77,31.519,199.596,31.267,199.596,30.983z"/>
		<path fill="#221E20" d="M45.307,21.085c-0.193,0.051-0.418,0.076-0.669,0.076c-0.8,0-1.217-0.453-1.217-1.322V13.96
			c0-2.122-0.766-3.792-2.296-5.009c-1.496-1.218-3.514-1.81-5.983-1.81c-2.12,0-4.168,0.387-5.667,1.042
			C29.473,8.188,29.472,8.194,29.47,8.2c0.651,1.054,1.178,2.19,1.562,3.392c0.005,0.001,0.01,0.003,0.015,0.004
			c0.902-0.257,1.963-0.419,2.911-0.419c3.061,0,4.592,1.079,4.592,3.27v0.522c-1.392-0.731-3.062-1.079-5.01-1.079
			c-1.878,0-3.479,0.487-4.835,1.461c-1.356,0.975-2.018,2.401-2.018,4.244c0,3.514,2.644,5.811,6.401,5.811
			c2.402,0,4.344-0.758,5.856-2.238c0.063-0.062,0.165-0.043,0.204,0.037c0.681,1.385,1.945,2.062,3.854,2.062
			c0.798,0,1.462-0.119,2.003-0.354c0.39-0.17,0.641-0.555,0.641-0.979v-2.602C45.647,21.157,45.478,21.042,45.307,21.085z
			 M38.55,19.474c0,0.236-0.075,0.471-0.233,0.646c-0.893,0.996-2.135,1.492-3.698,1.492c-1.809,0-3.096-0.73-3.096-2.26
			c0-1.428,1.322-2.261,3.409-2.261c1.178,0,2.189,0.236,3.074,0.691c0.336,0.173,0.544,0.522,0.544,0.901V19.474z"/>
	</g>
</g>
</svg>
